Coordinates
version=1
nRows=5
nColumns=63
inDegrees=yes

Units are S.I. units (second, meters, Newtons, ...)
If the header above contains a line with 'inDegrees', this indicates whether rotational values are in degrees (yes) or radians (no).

endheader
time	pelvis_tilt	pelvis_list	pelvis_rotation	pelvis_tx	pelvis_ty	pelvis_tz	hip_flexion_r	hip_adduction_r	hip_rotation_r	knee_angle_r	knee_angle_r_beta	ankle_angle_r	subtalar_angle_r	mtp_angle_r	hip_flexion_l	hip_adduction_l	hip_rotation_l	knee_angle_l	knee_angle_l_beta	ankle_angle_l	subtalar_angle_l	mtp_angle_l	L5_S1_Flex_Ext	L5_S1_Lat_Bending	L5_S1_axial_rotation	L4_L5_Flex_Ext	L4_L5_Lat_Bending	L4_L5_axial_rotation	L3_L4_Flex_Ext	L3_L4_Lat_Bending	L3_L4_axial_rotation	L2_L3_Flex_Ext	L2_L3_Lat_Bending	L2_L3_axial_rotation	L1_L2_Flex_Ext	L1_L2_Lat_Bending	L1_L2_axial_rotation	L1_T12_Flex_Ext	L1_T12_Lat_Bending	L1_T12_axial_rotation	Abs_r3	Abs_r2	Abs_r1	Abs_t1	Abs_t2	neck_flexion	neck_bending	neck_rotation	arm_flex_r	arm_add_r	arm_rot_r	elbow_flex_r	pro_sup_r	wrist_flex_r	wrist_dev_r	arm_flex_l	arm_add_l	arm_rot_l	elbow_flex_l	pro_sup_l	wrist_flex_l	wrist_dev_l
      1.21666667	     -4.95528581	     -3.15025153	     81.95182831	      0.11876236	      0.97118298	      0.31129528	     -1.47166690	     -3.10089559	    -18.11430575	      2.75571264	      0.04809626	     10.95680314	     17.93582036	      0.00000000	      1.10627468	      2.97818078	     -8.05924590	      5.64224516	      0.09847576	     10.91983589	     -0.91119166	      0.00000000	      0.00756857	     -0.43139986	      0.45383784	      0.01405558	     -0.57376181	      0.48220271	      0.01243440	     -1.04890561	      0.48220271	      0.00865011	     -1.04890561	      0.39710811	      0.00702817	     -0.87971058	      0.36874325	      0.00432468	     -0.66823838	      0.34037838	      0.05406151	     -4.88008144	      2.52410994	      0.00000000	      0.00000000	      8.46685249	      2.08529560	     -8.27131328	      2.26903996	    -10.69250999	      9.38551643	    119.32380440	     63.49821603	     -7.88345162	     25.90810179	     24.32124785	    -22.53460547	     65.90917744	     41.11988472	     89.33734191	    -13.58406653	     -1.43507975
      1.23333333	     -4.95571764	     -2.90462695	     81.88306702	      0.11877705	      0.97185318	      0.31173405	     -1.65602603	     -3.09832883	    -18.25863224	      2.74147002	      0.04784768	     10.88270390	     17.88055865	      0.00000000	      0.83666187	      3.06401323	     -7.34626334	      5.55159295	      0.09689358	     10.06758402	     -2.43710514	      0.00000000	     -0.00689348	     -0.43783627	      0.44210166	     -0.01280188	     -0.58232224	      0.46973301	     -0.01132530	     -1.06455510	      0.46973301	     -0.00787856	     -1.06455510	      0.38683895	     -0.00640128	     -0.89283572	      0.35920760	     -0.00393893	     -0.67820838	      0.33157625	     -0.04923943	     -4.95289143	      2.45883681	      0.00000000	      0.00000000	      7.97057530	      2.34045500	     -8.67975178	      2.54651989	    -10.38156992	      8.56286949	    120.14529866	     60.28893716	     -8.77854665	     26.87570886	     24.72064627	    -22.26000691	     69.93003140	     38.81532252	     89.30943326	    -19.95216150	     -6.22861911
      1.25000000	     -4.92215961	     -2.73528122	     81.77879227	      0.11885195	      0.97233941	      0.31208341	     -1.80633272	     -3.02721219	    -18.33781097	      2.63782643	      0.04603876	     10.75945386	     17.78851339	      0.00000000	      0.64198115	      3.09389029	     -6.76772694	      5.49506072	      0.09590690	      9.39370706	     -3.72503673	      0.00000000	     -0.01341619	     -0.43831788	      0.34613093	     -0.02491521	     -0.58296277	      0.36776411	     -0.02204146	     -1.06572608	      0.36776411	     -0.01533337	     -1.06572608	      0.30286457	     -0.01245828	     -0.89381781	      0.28123138	     -0.00766601	     -0.67895439	      0.25959820	     -0.09583053	     -4.95833948	      1.92507640	      0.00000000	      0.00000000	      7.72666056	      2.87389740	     -8.46252754	      3.06320805	    -10.26126268	      8.39442754	    120.54660246	     58.63853922	     -9.70230221	     27.79880213	     23.99712624	    -22.18468912	     70.47896930	     37.28761129	     89.27246237	    -23.62108590	     -8.48921963
      1.26666667	     -4.90929450	     -2.61288056	     81.58131058	      0.11908035	      0.97264716	      0.31238498	     -1.91689244	     -2.96144172	    -18.24848005	      2.49456556	      0.04353838	     10.68159311	     17.65431973	      0.00000000	      0.49021540	      3.12475853	     -6.51453142	      5.45049933	      0.09512916	      8.96428093	     -4.54250098	      0.00000000	     -0.01734242	     -0.44113561	      0.24133907	     -0.03220661	     -0.58671036	      0.25642276	     -0.02849187	     -1.07257712	      0.25642276	     -0.01982065	     -1.07257712	      0.21117168	     -0.01610417	     -0.89956374	      0.19608799	     -0.00990946	     -0.68331906	      0.18100430	     -0.12387519	     -4.99021424	      1.34225549	      0.00000000	      0.00000000	      7.71519970	      3.48149544	     -8.20914168	      3.55761001	    -10.24211613	      8.39232040	    120.70352120	     58.51429553	    -10.31107825	     28.88980070	     22.77780066	    -22.32874471	     68.96198351	     36.62468685	     89.21920626	    -24.99068963	     -8.57569816
      1.28333333	     -4.89342912	     -2.52688638	     81.42220506	      0.11916610	      0.97278276	      0.31238175	     -2.08202366	     -2.88831674	    -18.15282509	      2.23805452	      0.03906142	     10.51983669	     17.50471212	      0.00000000	      0.32692732	      3.16020367	     -6.05581506	      5.34916942	      0.09336062	      8.72891785	     -5.42222934	      0.00000000	     -0.01323211	     -0.43992705	      0.13240782	     -0.02457335	     -0.58510298	      0.14068331	     -0.02173904	     -1.06963863	      0.14068331	     -0.01512298	     -1.06963863	      0.11585684	     -0.01228734	     -0.89709924	      0.10758136	     -0.00756083	     -0.68144700	      0.09930587	     -0.09451565	     -4.97654276	      0.73641258	      0.00000000	      0.00000000	      8.06133072	      4.40514928	     -7.60711536	      3.95321750	    -10.36980302	      8.50720257	    120.64708077	     59.15089960	    -10.48581612	     29.90110882	     21.15721278	    -22.44112862	     65.84012379	     36.43831786	     89.13461789	    -25.12809077	     -7.70908224
